<svg width="24" height="20" viewBox="0 0 24 20" fill="none" xmlns="http://www.w3.org/2000/svg">
<path fill-rule="evenodd" clip-rule="evenodd" d="M0 4C0 2.93913 0.316071 1.92172 0.87868 1.17157C1.44129 0.421427 2.20435 2.77024e-08 3 2.77024e-08H14.25C14.9776 -0.000114096 15.6805 0.352386 16.2277 0.991856C16.7749 1.63133 17.1292 2.51418 17.2245 3.476L21.8895 0.712C22.1178 0.576343 22.368 0.518927 22.6172 0.544971C22.8664 0.571015 23.1068 0.679692 23.3165 0.861125C23.5262 1.04256 23.6986 1.29099 23.8179 1.58385C23.9373 1.8767 23.9999 2.20469 24 2.538V17.462C23.9998 17.795 23.9372 18.1228 23.8179 18.4154C23.6986 18.708 23.5264 18.9563 23.3169 19.1376C23.1074 19.319 22.8673 19.4278 22.6183 19.454C22.3693 19.4803 22.1193 19.4232 21.891 19.288L17.2245 16.524C17.1292 17.4858 16.7749 18.3687 16.2277 19.0081C15.6805 19.6476 14.9776 20.0001 14.25 20H3C2.20435 20 1.44129 19.5786 0.87868 18.8284C0.316071 18.0783 0 17.0609 0 16V4ZM17.25 14.35L22.5 17.462V2.538L17.25 5.65V14.35ZM3 2C2.60218 2 2.22064 2.21071 1.93934 2.58579C1.65804 2.96086 1.5 3.46957 1.5 4V16C1.5 16.5304 1.65804 17.0391 1.93934 17.4142C2.22064 17.7893 2.60218 18 3 18H14.25C14.6478 18 15.0294 17.7893 15.3107 17.4142C15.592 17.0391 15.75 16.5304 15.75 16V4C15.75 3.46957 15.592 2.96086 15.3107 2.58579C15.0294 2.21071 14.6478 2 14.25 2H3Z" fill="#333333" fill-opacity="0.4"/>
</svg>
