<svg width="30" height="24" viewBox="0 0 30 24" fill="none" xmlns="http://www.w3.org/2000/svg">
<path d="M0.75 3.33333C0.75 3.30418 0.754705 3.28459 0.758507 3.27405C0.760348 3.26894 0.761935 3.26603 0.762711 3.26475L0.763845 3.26313C1.34207 2.64731 3.4452 0.75 7.5 0.75C11.5548 0.75 13.6579 2.64731 14.2362 3.26313L14.2373 3.26475C14.2381 3.26603 14.2397 3.26894 14.2415 3.27405C14.2453 3.28459 14.25 3.30418 14.25 3.33333V22.1315C14.25 22.215 14.1983 22.3466 14.0223 22.4601C13.8444 22.5748 13.6453 22.5976 13.5105 22.5553C12.2192 22.15 10.2477 21.75 7.5 21.75C4.75232 21.75 2.78083 22.15 1.48946 22.5553C1.35473 22.5976 1.15561 22.5748 0.977726 22.4601C0.801696 22.3466 0.75 22.215 0.75 22.1315V3.33333ZM15.75 3.33333C15.75 3.30418 15.7547 3.28459 15.7585 3.27405C15.7603 3.26894 15.7619 3.26603 15.7627 3.26475L15.7638 3.26313C16.3421 2.64731 18.4452 0.75 22.5 0.75C26.5548 0.75 28.6579 2.64731 29.2362 3.26313L29.2373 3.26475C29.2381 3.26603 29.2397 3.26894 29.2415 3.27405C29.2453 3.28459 29.25 3.30418 29.25 3.33333V22.1315C29.25 22.215 29.1983 22.3466 29.0223 22.4601C28.8444 22.5748 28.6453 22.5976 28.5105 22.5553C27.2192 22.15 25.2477 21.75 22.5 21.75C19.7523 21.75 17.7808 22.15 16.4895 22.5553C16.3547 22.5976 16.1556 22.5748 15.9777 22.4601C15.8017 22.3466 15.75 22.215 15.75 22.1315V3.33333Z" stroke="#010055" stroke-width="1.5" stroke-linecap="round" stroke-linejoin="round"/>
</svg>
