<svg width="24" height="24" viewBox="0 0 24 24" fill="none" xmlns="http://www.w3.org/2000/svg">
<path d="M0.75 1C0.75 0.861929 0.861929 0.75 1 0.75H8.33333C8.47141 0.75 8.58333 0.861928 8.58333 1V11C8.58333 11.1381 8.47141 11.25 8.33333 11.25H0.999999C0.861929 11.25 0.75 11.1381 0.75 11V1ZM15.4167 0.999999C15.4167 0.861929 15.5286 0.75 15.6667 0.75H23C23.1381 0.75 23.25 0.861927 23.25 1V5.66667C23.25 5.80474 23.1381 5.91667 23 5.91667H15.6667C15.5286 5.91667 15.4167 5.80474 15.4167 5.66667V0.999999ZM15.4167 13C15.4167 12.8619 15.5286 12.75 15.6667 12.75H23C23.1381 12.75 23.25 12.8619 23.25 13V23C23.25 23.1381 23.1381 23.25 23 23.25H15.6667C15.5286 23.25 15.4167 23.1381 15.4167 23V13ZM0.75 18.3333C0.75 18.1953 0.861927 18.0833 1 18.0833H8.33333C8.47141 18.0833 8.58333 18.1953 8.58333 18.3333V23C8.58333 23.1381 8.47141 23.25 8.33333 23.25H0.999999C0.861928 23.25 0.75 23.1381 0.75 23V18.3333Z" fill="#010055" stroke="#010055" stroke-width="1.5" stroke-linecap="round" stroke-linejoin="round"/>
</svg>
