<svg width="9" height="15" viewBox="0 0 9 15" fill="none" xmlns="http://www.w3.org/2000/svg">
<path d="M8.34476 6.55047L2.55421 0.77015C2.4591 0.67426 2.34595 0.59815 2.22128 0.54621C2.09661 0.494271 1.96289 0.467529 1.82783 0.467529C1.69277 0.467529 1.55905 0.494271 1.43438 0.54621C1.30971 0.59815 1.19656 0.67426 1.10145 0.77015C0.910908 0.961834 0.803955 1.22113 0.803955 1.49141C0.803955 1.76169 0.910908 2.02099 1.10145 2.21267L6.16563 7.328L1.10145 12.3922C0.910908 12.5839 0.803955 12.8432 0.803955 13.1134C0.803955 13.3837 0.910908 13.643 1.10145 13.8347C1.19621 13.9314 1.3092 14.0083 1.43388 14.061C1.55857 14.1136 1.69247 14.1411 1.82783 14.1416C1.96319 14.1411 2.09709 14.1136 2.22178 14.061C2.34646 14.0083 2.45946 13.9314 2.55421 13.8347L8.34476 8.05438C8.4486 7.95857 8.53148 7.8423 8.58817 7.71288C8.64485 7.58347 8.67412 7.44371 8.67412 7.30242C8.67412 7.16114 8.64485 7.02138 8.58817 6.89196C8.53148 6.76255 8.4486 6.64627 8.34476 6.55047Z" fill="#121212"/>
</svg>
