<svg width="24" height="24" viewBox="0 0 24 24" fill="none" xmlns="http://www.w3.org/2000/svg">
<path d="M6 5.65C5.58579 5.65 5.25 5.98579 5.25 6.4C5.25 6.81421 5.58579 7.15 6 7.15H18C18.4142 7.15 18.75 6.81421 18.75 6.4C18.75 5.98579 18.4142 5.65 18 5.65H6ZM6 12.05C5.58579 12.05 5.25 12.3858 5.25 12.8C5.25 13.2142 5.58579 13.55 6 13.55H15C15.4142 13.55 15.75 13.2142 15.75 12.8C15.75 12.3858 15.4142 12.05 15 12.05H6ZM12.1824 22.7089C12.0836 22.8142 11.9164 22.8142 11.8176 22.7089L8.34346 19.0031C8.01262 18.6502 7.55048 18.45 7.06677 18.45H4.5C3.52163 18.45 2.57272 18.0359 1.86517 17.2812C1.15609 16.5248 0.75 15.4892 0.75 14.4V4.8C0.75 3.71081 1.15609 2.6752 1.86517 1.91884C2.57272 1.16412 3.52163 0.75 4.5 0.75H19.5C20.4784 0.75 21.4273 1.16412 22.1348 1.91884C22.8439 2.6752 23.25 3.71081 23.25 4.8V14.4C23.25 15.4892 22.8439 16.5248 22.1348 17.2812C21.4273 18.0359 20.4784 18.45 19.5 18.45H16.9332C16.4495 18.45 15.9874 18.6502 15.6565 19.0031L12.1824 22.7089Z" stroke="#010055" stroke-width="1.5" stroke-linecap="round" stroke-linejoin="round"/>
</svg>
