<svg width="25" height="26" viewBox="0 0 25 26" fill="none" xmlns="http://www.w3.org/2000/svg">
<path d="M8 1H2C1.44772 1 1 1.44772 1 2V24C1 24.5523 1.44772 25 2 25H8" stroke="#010055" stroke-width="1.5" stroke-linecap="round"/>
<path d="M6.26086 12.25C5.84665 12.25 5.51086 12.5858 5.51086 13C5.51086 13.4142 5.84665 13.75 6.26086 13.75V12.25ZM24.5303 13.5303C24.8232 13.2374 24.8232 12.7626 24.5303 12.4697L19.7574 7.6967C19.4645 7.40381 18.9896 7.40381 18.6967 7.6967C18.4038 7.98959 18.4038 8.46447 18.6967 8.75736L22.9393 13L18.6967 17.2426C18.4038 17.5355 18.4038 18.0104 18.6967 18.3033C18.9896 18.5962 19.4645 18.5962 19.7574 18.3033L24.5303 13.5303ZM6.26086 13.75H24V12.25H6.26086V13.75Z" fill="#010055"/>
</svg>
