<svg width="24" height="26" viewBox="0 0 24 26" fill="none" xmlns="http://www.w3.org/2000/svg">
<path d="M19.0032 8.20128C19.0032 6.29138 18.2445 4.45971 16.894 3.1092C15.5435 1.7587 13.7118 1 11.8019 1C9.89202 1 8.06034 1.7587 6.70984 3.1092C5.35934 4.45971 4.60064 6.29138 4.60064 8.20128C4.60064 16.6028 1 19.0032 1 19.0032H22.6038C22.6038 19.0032 19.0032 16.6028 19.0032 8.20128Z" stroke="black" stroke-width="2" stroke-linecap="round" stroke-linejoin="round"/>
<path d="M13.8783 23.804C13.6673 24.1677 13.3644 24.4697 13 24.6795C12.6356 24.8894 12.2225 24.9999 11.802 24.9999C11.3814 24.9999 10.9683 24.8894 10.6039 24.6795C10.2395 24.4697 9.9366 24.1677 9.72559 23.804" stroke="black" stroke-width="2" stroke-linecap="round" stroke-linejoin="round"/>
</svg>
