<svg width="23" height="24" viewBox="0 0 23 24" fill="none" xmlns="http://www.w3.org/2000/svg">
<path d="M22.4212 15.0506L20.6666 13.5505C20.7497 13.0415 20.7925 12.5219 20.7925 12.0022C20.7925 11.4825 20.7497 10.9628 20.6666 10.4539L22.4212 8.95375C22.5535 8.84045 22.6483 8.68956 22.6928 8.52112C22.7373 8.35269 22.7294 8.1747 22.6703 8.01082L22.6462 7.94118C22.1632 6.59115 21.4399 5.33966 20.5112 4.24717L20.463 4.19092C20.3504 4.05846 20.2002 3.96324 20.0324 3.91781C19.8645 3.87238 19.6869 3.87887 19.5228 3.93643L17.345 4.71059C16.5413 4.05162 15.6439 3.53194 14.6742 3.16763L14.2537 0.890687C14.2219 0.719359 14.1388 0.561742 14.0154 0.438775C13.8919 0.315807 13.734 0.233311 13.5626 0.202246L13.4902 0.188852C12.0946 -0.0629508 10.6266 -0.0629508 9.231 0.188852L9.15868 0.202246C8.98723 0.233311 8.82929 0.315807 8.70584 0.438775C8.5824 0.561742 8.49929 0.719359 8.46756 0.890687L8.04431 3.17835C7.08234 3.54273 6.18651 4.06214 5.39234 4.71595L3.19844 3.93643C3.03441 3.87842 2.85661 3.87169 2.68866 3.91715C2.52071 3.9626 2.37058 4.05809 2.2582 4.19092L2.20998 4.24717C1.28245 5.34044 0.559266 6.59172 0.0750106 7.94118L0.0509018 8.01082C-0.0696423 8.34567 0.0294718 8.72069 0.300026 8.95375L2.07604 10.4699C1.993 10.9735 1.95282 11.4879 1.95282 11.9995C1.95282 12.5138 1.993 13.0281 2.07604 13.5291L0.300026 15.0452C0.167684 15.1585 0.0729653 15.3094 0.0284645 15.4779C-0.0160363 15.6463 -0.0082104 15.8243 0.0509018 15.9882L0.0750106 16.0578C0.559866 17.4079 1.27777 18.6535 2.20998 19.7518L2.2582 19.8081C2.37085 19.9405 2.52099 20.0357 2.68884 20.0812C2.85669 20.1266 3.03436 20.1201 3.19844 20.0626L5.39234 19.283C6.19061 19.9393 7.08264 20.459 8.04431 20.8206L8.46756 23.1083C8.49929 23.2796 8.5824 23.4372 8.70584 23.5602C8.82929 23.6832 8.98723 23.7657 9.15868 23.7967L9.231 23.8101C10.6395 24.0633 12.0818 24.0633 13.4902 23.8101L13.5626 23.7967C13.734 23.7657 13.8919 23.6832 14.0154 23.5602C14.1388 23.4372 14.2219 23.2796 14.2537 23.1083L14.6742 20.8314C15.6436 20.468 16.546 19.9466 17.345 19.2884L19.5228 20.0626C19.6868 20.1206 19.8646 20.1273 20.0326 20.0818C20.2005 20.0364 20.3507 19.9409 20.463 19.8081L20.5112 19.7518C21.4435 18.6508 22.1614 17.4079 22.6462 16.0578L22.6703 15.9882C22.7909 15.6587 22.6918 15.2837 22.4212 15.0506ZM18.7647 10.7699C18.8317 11.1744 18.8665 11.5896 18.8665 12.0049C18.8665 12.4201 18.8317 12.8353 18.7647 13.2398L18.5879 14.3139L20.5889 16.0257C20.2856 16.7245 19.9027 17.3861 19.4478 17.9972L16.9619 17.1159L16.1208 17.807C15.4805 18.3321 14.768 18.7446 13.9965 19.0339L12.9759 19.417L12.4964 22.0154C11.7398 22.1011 10.976 22.1011 10.2195 22.0154L9.73997 19.4116L8.7274 19.0232C7.96395 18.7339 7.25408 18.3214 6.61922 17.799L5.77809 17.1052L3.27613 17.9946C2.82074 17.3811 2.44035 16.7195 2.13497 16.023L4.15744 14.2952L3.98332 13.2237C3.91903 12.8246 3.8842 12.412 3.8842 12.0049C3.8842 11.595 3.91635 11.1852 3.98332 10.786L4.15744 9.71451L2.13497 7.98671C2.43767 7.28756 2.82074 6.62858 3.27613 6.01515L5.77809 6.9045L6.61922 6.2107C7.25408 5.68834 7.96395 5.27581 8.7274 4.98651L9.74265 4.60344L10.2221 1.99969C10.9749 1.91397 11.7437 1.91397 12.4991 1.99969L12.9786 4.59809L13.9992 4.98115C14.768 5.27045 15.4832 5.68298 16.1234 6.20802L16.9646 6.89914L19.4505 6.01783C19.9059 6.63126 20.2862 7.29292 20.5916 7.98939L18.5906 9.70112L18.7647 10.7699ZM11.3633 7.02236C8.75954 7.02236 6.64868 9.13322 6.64868 11.737C6.64868 14.3407 8.75954 16.4516 11.3633 16.4516C13.967 16.4516 16.0779 14.3407 16.0779 11.737C16.0779 9.13322 13.967 7.02236 11.3633 7.02236ZM13.4849 13.8586C13.2066 14.1376 12.8759 14.3589 12.5118 14.5097C12.1477 14.6605 11.7574 14.7378 11.3633 14.7372C10.5623 14.7372 9.80961 14.4238 9.24172 13.8586C8.96265 13.5803 8.74136 13.2496 8.59057 12.8855C8.43978 12.5214 8.36247 12.1311 8.36309 11.737C8.36309 10.936 8.6765 10.1833 9.24172 9.6154C9.80961 9.0475 10.5623 8.73677 11.3633 8.73677C12.1642 8.73677 12.917 9.0475 13.4849 9.6154C13.7639 9.89366 13.9852 10.2244 14.136 10.5885C14.2868 10.9526 14.3641 11.3429 14.3635 11.737C14.3635 12.5379 14.0501 13.2907 13.4849 13.8586Z" fill="#333333" fill-opacity="0.4"/>
</svg>
