<svg width="26" height="25" viewBox="0 0 26 25" fill="none" xmlns="http://www.w3.org/2000/svg">
<path d="M18.3226 21.0225L17.6007 15.2432C17.4984 14.4246 17.1006 13.6715 16.482 13.1257C15.8635 12.5798 15.0668 12.2787 14.2418 12.2791H11.756C10.9314 12.2793 10.1353 12.5806 9.51717 13.1264C8.89909 13.6722 8.50158 14.425 8.39933 15.2432L7.67635 21.0225C7.63667 21.34 7.66499 21.6624 7.75945 21.9681C7.8539 22.2738 8.01231 22.556 8.22417 22.7958C8.43603 23.0356 8.69649 23.2276 8.98824 23.359C9.27999 23.4904 9.59637 23.5583 9.91635 23.558H16.0837C16.4036 23.5581 16.7198 23.4901 17.0115 23.3587C17.3031 23.2272 17.5634 23.0351 17.7751 22.7954C17.9869 22.5556 18.1452 22.2735 18.2396 21.9678C18.334 21.6622 18.3623 21.34 18.3226 21.0225V21.0225Z" stroke="#333333" stroke-opacity="0.4" stroke-width="2" stroke-linecap="round" stroke-linejoin="round"/>
<path d="M12.9999 7.7674C14.8687 7.7674 16.3836 6.25246 16.3836 4.3837C16.3836 2.51493 14.8687 1 12.9999 1C11.1311 1 9.61621 2.51493 9.61621 4.3837C9.61621 6.25246 11.1311 7.7674 12.9999 7.7674Z" stroke="#333333" stroke-opacity="0.4" stroke-width="2"/>
<path d="M3.97675 11.151C5.22259 11.151 6.23255 10.141 6.23255 8.8952C6.23255 7.64936 5.22259 6.6394 3.97675 6.6394C2.7309 6.6394 1.72095 7.64936 1.72095 8.8952C1.72095 10.141 2.7309 11.151 3.97675 11.151Z" stroke="#333333" stroke-opacity="0.4" stroke-width="2"/>
<path d="M22.0231 11.151C23.269 11.151 24.2789 10.141 24.2789 8.8952C24.2789 7.64936 23.269 6.6394 22.0231 6.6394C20.7773 6.6394 19.7673 7.64936 19.7673 8.8952C19.7673 10.141 20.7773 11.151 22.0231 11.151Z" stroke="#333333" stroke-opacity="0.4" stroke-width="2"/>
<path d="M3.9768 14.5349H3.63167C3.09768 14.5348 2.58098 14.7242 2.17349 15.0693C1.76601 15.4144 1.49416 15.8929 1.40632 16.4196L1.03073 18.6754C0.976831 18.9986 0.993985 19.3297 1.081 19.6456C1.16802 19.9615 1.3228 20.2546 1.53459 20.5046C1.74639 20.7546 2.0101 20.9555 2.30739 21.0933C2.60468 21.231 2.92842 21.3023 3.25608 21.3023H7.3605M22.0232 14.5349H22.3683C22.9023 14.5348 23.419 14.7242 23.8265 15.0693C24.234 15.4144 24.5058 15.8929 24.5937 16.4196L24.9693 18.6754C25.0232 18.9986 25.006 19.3297 24.919 19.6456C24.832 19.9615 24.6772 20.2546 24.4654 20.5046C24.2536 20.7546 23.9899 20.9555 23.6926 21.0933C23.3953 21.231 23.0716 21.3023 22.7439 21.3023H18.6395" stroke="#333333" stroke-opacity="0.4" stroke-width="2" stroke-linecap="round" stroke-linejoin="round"/>
</svg>
